<?xml version="1.0" encoding="UTF-8"?>
<!DOCTYPE svg PUBLIC "-//W3C//DTD SVG 1.1//EN" "http://www.w3.org/Graphics/SVG/1.1/DTD/svg11.dtd">
<!-- Creator: CorelDRAW 2020 (64-Bit) -->
<svg xmlns="http://www.w3.org/2000/svg" xml:space="preserve" width="5.68513in" height="5.78756in" version="1.1" style="shape-rendering:geometricPrecision; text-rendering:geometricPrecision; image-rendering:optimizeQuality; fill-rule:evenodd; clip-rule:evenodd"
viewBox="0 0 683.82 696.14"
 xmlns:xlink="http://www.w3.org/1999/xlink"
 xmlns:xodm="http://www.corel.com/coreldraw/odm/2003">
 <defs>
  <style type="text/css">
   <![CDATA[
    .fil0 {fill:#E6E6E6}
   ]]>
  </style>
 </defs>
 <g id="Layer_x0020_1">
  <metadata id="CorelCorpID_0Corel-Layer"/>
  <path class="fil0" d="M-0 0l257.72 0 -3.08 190.98c25.33,-22.25 51.68,-39.02 78.89,-50.14 27.21,-11.12 55.44,-16.6 84.88,-16.6 65.37,0 124.41,23.96 176.77,71.7 59.04,53.73 88.64,123.72 88.64,209.97 0,88.81 -30.46,162.23 -91.21,220.07 -49.45,46.72 -106.1,70.16 -169.93,70.16 -32.86,0 -62.12,-5.99 -87.79,-17.8 -25.84,-11.81 -52.19,-31.49 -79.23,-59.21l0 65.71 -255.66 0 0 -22.59 1.03 -243.34 -0.34 -173.52 -0.68 -245.39zm558.9 567.81l-30.15 -40.5 -33.83 40.5 -35.55 0 60.55 -65.99 20.55 0 53.73 65.99 -35.3 0zm3.68 -313.1l-30.15 40.5 -33.83 -40.5 -35.55 0 60.55 65.99 20.55 0 53.73 -65.99 -35.3 0zm-307.94 -22.66l0 340.88c22.42,23.79 40.04,40.9 53.05,51.68 26.7,21.73 50.82,32.51 72.56,32.51 15.06,0 24.64,-7.19 29.09,-21.56 1.88,-6.67 3.08,-23.45 3.42,-50.48l0 -336.26 0.51 -22.08c0,-25.33 -2.22,-42.61 -6.85,-51.85 -4.45,-9.07 -13.01,-13.69 -25.67,-13.69 -16.09,0 -34.57,5.82 -55.62,17.63 -20.88,11.64 -44.49,29.43 -70.5,53.22z"/>
 </g>
</svg>
