<?xml version="1.0" encoding="UTF-8"?>
<!DOCTYPE svg PUBLIC "-//W3C//DTD SVG 1.1//EN" "http://www.w3.org/Graphics/SVG/1.1/DTD/svg11.dtd">
<!-- Creator: CorelDRAW 2020 (64-Bit) -->
<svg xmlns="http://www.w3.org/2000/svg" xml:space="preserve" width="4.74614in" height="4.75468in" version="1.1" style="shape-rendering:geometricPrecision; text-rendering:geometricPrecision; image-rendering:optimizeQuality; fill-rule:evenodd; clip-rule:evenodd"
viewBox="0 0 445.59 446.39"
 xmlns:xlink="http://www.w3.org/1999/xlink"
 xmlns:xodm="http://www.corel.com/coreldraw/odm/2003">
 <defs>
  <style type="text/css">
   <![CDATA[
    .fil0 {fill:#E6E6E6}
   ]]>
  </style>
 </defs>
 <g id="Layer_x0020_1">
  <metadata id="CorelCorpID_0Corel-Layer"/>
  <path class="fil0" d="M222.39 0c42.07,0 81.88,11.62 119.41,34.86 34.73,21.37 61.18,50.62 79.47,87.62 16.16,32.59 24.31,67.19 24.31,103.65 0,24.98 -4.81,50.22 -14.29,75.47 -9.48,25.38 -22.57,47.82 -39,67.32 -22.97,26.85 -51.02,47.15 -84.15,60.64 -27.11,11.22 -55.43,16.83 -84.95,16.83 -49.29,0 -93.77,-14.56 -133.17,-43.81 -30.72,-22.44 -54.1,-51.29 -69.99,-86.42 -13.36,-29.79 -20.04,-61.18 -20.04,-94.3 0,-64.78 23.51,-118.48 70.53,-161.22 44.08,-39.67 94.7,-59.84 151.87,-60.64zm-78.65 118.46l-31.61 23.54 31.61 26.41 0 27.75 -51.51 -47.26 0 -16.04 51.51 -41.94 0 27.55zm-3.59 164.32l-31.61 23.54 31.61 26.41 0 27.75 -51.51 -47.26 0 -16.04 51.51 -41.94 0 27.55zm70.61 -257.93l-0.8 395.1c8.15,0.53 13.76,0.8 16.83,0.8 36.33,0 71.06,-10.15 104.19,-30.59 31.92,-19.9 55.83,-46.22 71.73,-79.21 12.56,-26.05 18.83,-54.9 18.83,-86.15 0,-63.05 -23.24,-114.07 -69.86,-153.34 -37.67,-31.66 -78.67,-47.42 -122.88,-47.42 -3.61,0 -9.62,0.27 -18.03,0.8z"/>
 </g>
</svg>
