<?xml version="1.0" encoding="UTF-8"?>
<!DOCTYPE svg PUBLIC "-//W3C//DTD SVG 1.1//EN" "http://www.w3.org/Graphics/SVG/1.1/DTD/svg11.dtd">
<!-- Creator: CorelDRAW 2020 (64-Bit) -->
<svg xmlns="http://www.w3.org/2000/svg" xml:space="preserve" width="4.74614in" height="4.75467in" version="1.1" style="shape-rendering:geometricPrecision; text-rendering:geometricPrecision; image-rendering:optimizeQuality; fill-rule:evenodd; clip-rule:evenodd"
viewBox="0 0 587.68 588.74"
 xmlns:xlink="http://www.w3.org/1999/xlink"
 xmlns:xodm="http://www.corel.com/coreldraw/odm/2003">
 <defs>
  <style type="text/css">
   <![CDATA[
    .fil0 {fill:#E6E6E6}
   ]]>
  </style>
 </defs>
 <g id="Layer_x0020_1">
  <metadata id="CorelCorpID_0Corel-Layer"/>
  <path class="fil0" d="M293.31 0c55.49,0 107.99,15.33 157.49,45.98 45.8,28.19 80.68,66.77 104.82,115.56 21.32,42.98 32.06,88.61 32.06,136.7 0,32.94 -6.34,66.24 -18.85,99.53 -12.51,33.47 -29.77,63.07 -51.44,88.79 -30.3,35.41 -67.29,62.19 -110.98,79.98 -35.76,14.8 -73.11,22.2 -112.04,22.2 -65,0 -123.67,-19.2 -175.64,-57.78 -40.52,-29.6 -71.35,-67.65 -92.31,-113.98 -17.62,-39.28 -26.42,-80.68 -26.42,-124.37 0,-85.44 31,-156.26 93.01,-212.63 58.13,-52.32 124.9,-78.92 200.3,-79.98zm-127.15 143.05c25.09,0 45.43,20.34 45.43,45.43 0,25.09 -20.34,45.43 -45.43,45.43 -25.09,0 -45.43,-20.34 -45.43,-45.43 0,-25.09 20.34,-45.43 45.43,-45.43zm0 208.2c25.09,0 45.43,20.34 45.43,45.43 0,25.09 -20.34,45.43 -45.43,45.43 -25.09,0 -45.43,-20.34 -45.43,-45.43 0,-25.09 20.34,-45.43 45.43,-45.43zm111.82 -318.48l-1.06 521.09c10.75,0.7 18.14,1.06 22.2,1.06 47.92,0 93.72,-13.39 137.41,-40.34 42.1,-26.25 73.64,-60.95 94.6,-104.47 16.56,-34.35 24.84,-72.4 24.84,-113.63 0,-83.15 -30.65,-150.44 -92.13,-202.24 -49.68,-41.75 -103.76,-62.54 -162.07,-62.54 -4.76,0 -12.68,0.35 -23.78,1.06z"/>
 </g>
</svg>
