<svg xmlns="http://www.w3.org/2000/svg" xmlns:xlink="http://www.w3.org/1999/xlink" xmlns:xodm="http://www.corel.com/coreldraw/odm/2003" width="708.18" height="777" version="1.1" viewBox="0 0 8114.83 8903.42" xml:space="preserve" style="shape-rendering:geometricPrecision;text-rendering:geometricPrecision;image-rendering:optimizeQuality;fill-rule:evenodd;clip-rule:evenodd"><defs><style type="text/css">.fil0{fill:#333}</style></defs><g id="Layer_x0020_1"><metadata id="CorelCorpID_0Corel-Layer"/><path d="M2826.17 0l3.2 159.97 -6.4 1100.63 -3.2 474.6 -6.4 866 12.8 1545.37 0 121.58 -1599.72 0 0 -147.18 7.47 -496.99 4.27 -900.13 7.47 -1179.56 -2.14 -634.57 -7.47 -697.5 3.2 -212.23 1586.92 0zm2720.88 6193.44c151.88,0 275.01,123.13 275.01,275.01 0,151.88 -123.13,275.01 -275.01,275.01 -151.88,0 -275.01,-123.13 -275.01,-275.01 0,-151.88 123.13,-275.01 275.01,-275.01zm0 1260.46c151.88,0 275.01,123.13 275.01,275.01 0,151.88 -123.13,275.01 -275.01,275.01 -151.88,0 -275.01,-123.13 -275.01,-275.01 0,-151.88 123.13,-275.01 275.01,-275.01zm-2143.15 661.69l-187.92 -252.42 -210.84 252.42 -221.54 0 377.38 -411.3 128.08 0 334.85 411.3 -220.01 0zm22.91 -1951.33l-187.92 252.42 -210.84 -252.42 -221.54 0 377.38 411.3 128.08 0 334.85 -411.3 -220.01 0zm1134.18 -4410.69l-252.41 187.92 252.41 210.84 0 221.54 -411.3 -377.37 0 -128.08 411.3 -334.85 0 220zm-28.65 1312.02l-252.41 187.92 252.41 210.84 0 221.54 -411.3 -377.37 0 -128.08 411.3 -334.85 0 220zm573.95 -2291.31c335.94,0 653.75,92.78 953.43,278.36 277.29,170.64 488.45,404.21 634.56,699.63 129.04,260.23 194.1,536.45 194.1,827.61 0,199.44 -38.39,401.01 -114.11,602.58 -75.72,202.64 -180.24,381.81 -311.41,537.52 -183.43,214.36 -407.39,376.48 -671.88,484.19 -216.49,89.58 -442.59,134.38 -678.28,134.38 -393.53,0 -748.67,-116.25 -1063.28,-349.82 -245.29,-179.17 -431.92,-409.53 -558.83,-690.03 -106.65,-237.83 -159.97,-488.46 -159.97,-752.95 0,-517.26 187.7,-945.99 563.1,-1287.27 351.94,-316.75 756.13,-477.8 1212.59,-484.19zm-92.78 198.37l-6.4 3154.72c65.05,4.27 109.84,6.4 134.37,6.4 290.08,0 567.37,-81.06 831.85,-244.23 254.89,-158.91 445.79,-369.01 572.7,-632.44 100.25,-207.97 150.38,-438.33 150.38,-687.9 0,-503.39 -185.57,-910.8 -557.77,-1224.35 -300.75,-252.76 -628.16,-378.61 -981.16,-378.61 -28.8,0 -76.79,2.14 -143.97,6.4zm-5013.51 3592.22l1606.12 0 -19.19 1190.22c157.84,-138.64 322.07,-243.16 491.64,-312.48 169.57,-69.32 345.54,-103.45 528.97,-103.45 407.4,0 775.33,149.31 1101.67,446.87 367.94,334.88 552.44,771.08 552.44,1308.6 0,553.52 -189.83,1011.05 -568.43,1371.52 -308.21,291.16 -661.22,437.27 -1059.01,437.27 -204.77,0 -387.13,-37.33 -547.11,-110.92 -161.04,-73.59 -325.27,-196.24 -493.78,-369.01l0 409.54 -1593.32 0 0 -140.78 6.4 -1516.57 -2.14 -1081.44 -4.27 -1529.37zm1586.92 1446.18l0 2124.48c139.7,148.25 249.56,254.9 330.6,322.09 166.37,135.45 316.75,202.64 452.19,202.64 93.85,0 153.57,-44.79 181.3,-134.38 11.73,-41.59 19.2,-146.11 21.33,-314.62l0 -2095.69 3.2 -137.58c0,-157.84 -13.86,-265.56 -42.66,-323.15 -27.73,-56.53 -81.05,-85.32 -159.97,-85.32 -100.25,0 -215.43,36.26 -346.6,109.85 -130.11,72.52 -277.28,183.44 -439.39,331.68zm4745.83 -671.9c335.94,0 653.75,92.78 953.43,278.36 277.29,170.64 488.45,404.21 634.55,699.63 129.05,260.23 194.1,536.45 194.1,827.61 0,199.44 -38.39,401.01 -114.11,602.58 -75.72,202.64 -180.24,381.81 -311.41,537.52 -183.43,214.36 -407.39,376.48 -671.88,484.19 -216.49,89.58 -442.59,134.38 -678.28,134.38 -393.53,0 -748.67,-116.25 -1063.28,-349.82 -245.29,-179.17 -431.92,-409.53 -558.84,-690.03 -106.65,-237.83 -159.97,-488.46 -159.97,-752.95 0,-517.26 187.7,-945.99 563.1,-1287.27 351.94,-316.75 756.13,-477.8 1212.59,-484.19zm-92.79 198.37l-6.4 3154.72c65.05,4.27 109.85,6.4 134.38,6.4 290.08,0 567.36,-81.06 831.85,-244.23 254.89,-158.91 445.79,-369.01 572.69,-632.44 100.25,-207.97 150.38,-438.33 150.38,-687.9 0,-503.39 -185.57,-910.8 -557.77,-1224.35 -300.75,-252.76 -628.16,-378.61 -981.16,-378.61 -28.8,0 -76.79,2.14 -143.98,6.4z" class="fil0"/></g></svg>