<svg xmlns="http://www.w3.org/2000/svg" xmlns:xlink="http://www.w3.org/1999/xlink" xmlns:xodm="http://www.corel.com/coreldraw/odm/2003" width="38.4" height="38.4" version="1.1" viewBox="0 0 400 400" xml:space="preserve" style="shape-rendering:geometricPrecision;text-rendering:geometricPrecision;image-rendering:optimizeQuality;fill-rule:evenodd;clip-rule:evenodd"><defs><style type="text/css">.fil0{fill:#fff}</style></defs><g id="Layer_x0020_1"><metadata id="CorelCorpID_0Corel-Layer"/><path d="M-583.85 -4035.96l2.91 145.43 -5.81 1000.54 -2.91 431.44 -5.81 787.25 11.63 1404.83 0 110.52 -1454.24 0 0 -133.8 6.79 -451.8 3.88 -818.27 6.79 -1072.29 -1.94 -576.86 -6.79 -634.07 2.91 -192.93 1442.61 0zm2473.45 5630.21c138.07,0 250,111.93 250,250 0,138.07 -111.93,250 -250,250 -138.07,0 -250,-111.93 -250,-250 0,-138.07 111.93,-250 250,-250zm0 1145.83c138.07,0 250,111.93 250,250 0,138.07 -111.93,250 -250,250 -138.07,0 -250,-111.93 -250,-250 0,-138.07 111.93,-250 250,-250zm-1948.25 601.52l-170.83 -229.46 -191.67 229.46 -201.39 0 343.06 -373.89 116.43 0 304.4 373.89 -200 0zm20.83 -1773.88l-170.83 229.46 -191.67 -229.46 -201.39 0 343.06 373.89 116.43 0 304.4 -373.89 -200 0zm1031.04 -4009.58l-229.46 170.83 229.46 191.67 0 201.39 -373.89 -343.06 0 -116.43 373.89 -304.4 0 200zm-26.04 1192.71l-229.46 170.83 229.46 191.67 0 201.39 -373.89 -343.06 0 -116.43 373.89 -304.4 0 200zm521.76 -2082.94c305.39,0 594.3,84.35 866.72,253.04 252.07,155.12 444.03,367.45 576.85,636 117.31,236.56 176.45,487.67 176.45,752.35 0,181.3 -34.9,364.54 -103.74,547.78 -68.83,184.21 -163.85,347.09 -283.09,488.64 -166.75,194.87 -370.35,342.24 -610.78,440.16 -196.81,81.44 -402.34,122.16 -616.6,122.16 -357.74,0 -680.58,-105.68 -966.59,-318 -222.98,-162.88 -392.64,-372.29 -508.01,-627.28 -96.95,-216.2 -145.42,-444.04 -145.42,-684.48 0,-470.22 170.63,-859.96 511.89,-1170.21 319.93,-287.95 687.37,-434.35 1102.31,-440.16zm-84.35 180.33l-5.81 2867.83c59.13,3.88 99.85,5.82 122.15,5.82 263.7,0 515.77,-73.69 756.2,-222.02 231.71,-144.46 405.25,-335.46 520.62,-574.93 91.13,-189.06 136.7,-398.47 136.7,-625.34 0,-457.61 -168.69,-827.97 -507.05,-1113.01 -273.4,-229.78 -571.03,-344.18 -891.93,-344.18 -26.18,0 -69.81,1.94 -130.88,5.82zm-4557.59 3265.55l1460.06 0 -17.45 1081.98c143.48,-126.04 292.78,-221.05 446.93,-284.07 154.15,-63.02 314.12,-94.04 480.87,-94.04 370.35,0 704.82,135.73 1001.48,406.23 334.48,304.43 502.2,700.96 502.2,1189.6 0,503.18 -172.57,919.1 -516.74,1246.8 -280.19,264.68 -601.09,397.5 -962.7,397.5 -186.15,0 -351.93,-33.93 -497.35,-100.83 -146.39,-66.9 -295.69,-178.39 -448.87,-335.45l0 372.3 -1448.43 0 0 -127.98 5.82 -1378.65 -1.94 -983.09 -3.88 -1390.29zm1442.61 1314.67l0 1931.28c127,134.76 226.86,231.72 300.54,292.8 151.24,123.13 287.94,184.21 411.07,184.21 85.31,0 139.61,-40.72 164.81,-122.16 10.67,-37.81 17.45,-132.83 19.39,-286.01l0 -1905.11 2.91 -125.07c0,-143.49 -12.6,-241.41 -38.78,-293.76 -25.2,-51.39 -73.68,-77.56 -145.43,-77.56 -91.13,0 -195.83,32.96 -315.08,99.86 -118.28,65.93 -252.07,166.76 -399.43,301.52zm4314.25 -610.8c305.39,0 594.3,84.35 866.72,253.04 252.07,155.12 444.03,367.45 576.85,636 117.31,236.56 176.45,487.67 176.45,752.35 0,181.3 -34.9,364.54 -103.73,547.78 -68.84,184.21 -163.85,347.09 -283.09,488.64 -166.75,194.87 -370.35,342.24 -610.78,440.16 -196.81,81.44 -402.34,122.16 -616.6,122.16 -357.74,0 -680.59,-105.68 -966.59,-318 -222.98,-162.88 -392.64,-372.29 -508.02,-627.28 -96.95,-216.2 -145.42,-444.04 -145.42,-684.48 0,-470.22 170.63,-859.96 511.89,-1170.21 319.93,-287.95 687.37,-434.35 1102.31,-440.16zm-84.35 180.33l-5.81 2867.83c59.14,3.88 99.86,5.82 122.16,5.82 263.7,0 515.77,-73.69 756.2,-222.02 231.71,-144.46 405.25,-335.46 520.61,-574.93 91.14,-189.06 136.7,-398.47 136.7,-625.34 0,-457.61 -168.69,-827.97 -507.04,-1113.01 -273.4,-229.78 -571.04,-344.18 -891.93,-344.18 -26.18,0 -69.81,1.94 -130.89,5.82z" class="fil0"/></g></svg>