<?xml version="1.0" encoding="UTF-8"?>
<!DOCTYPE svg PUBLIC "-//W3C//DTD SVG 1.1//EN" "http://www.w3.org/Graphics/SVG/1.1/DTD/svg11.dtd">
<!-- Creator: CorelDRAW 2020 (64-Bit) -->
<svg xmlns="http://www.w3.org/2000/svg" xml:space="preserve" width="10.4867in" height="10.4867in" version="1.1" style="shape-rendering:geometricPrecision; text-rendering:geometricPrecision; image-rendering:optimizeQuality; fill-rule:evenodd; clip-rule:evenodd"
viewBox="0 0 10531.63 10531.63"
 xmlns:xlink="http://www.w3.org/1999/xlink"
 xmlns:xodm="http://www.corel.com/coreldraw/odm/2003">
 <defs>
  <style type="text/css">
   <![CDATA[
    .fil1 {fill:white}
    .fil0 {fill:url(#id0)}
   ]]>
  </style>
  <linearGradient id="id0" gradientUnits="userSpaceOnUse" x1="2690.52" y1="1770.83" x2="8322.32" y2="8844.48">
   <stop offset="0" style="stop-opacity:1; stop-color:#1F4F71"/>
   <stop offset="1" style="stop-opacity:1; stop-color:#003333"/>
  </linearGradient>
 </defs>
 <g id="Layer_x0020_1">
  <metadata id="CorelCorpID_0Corel-Layer"/>
  <g id="_1915084455168">
   <rect class="fil0" x="-0" y="-0" width="10531.63" height="10531.63" rx="2653.07" ry="2678.1"/>
   <path class="fil1" d="M4097.1 622.73l3.21 160.75 -6.43 1105.96 -3.21 476.89 -6.43 870.2 12.86 1552.85 0 122.17 -1607.47 0 0 -147.89 7.5 -499.4 4.29 -904.49 7.5 -1185.27 -2.14 -637.64 -7.5 -700.87 3.21 -213.26 1594.61 0zm2734.06 6223.43c152.62,0 276.34,123.72 276.34,276.34 0,152.62 -123.72,276.34 -276.34,276.34 -152.62,0 -276.34,-123.72 -276.34,-276.34 0,-152.62 123.73,-276.34 276.34,-276.34zm0 1266.56c152.62,0 276.34,123.72 276.34,276.34 0,152.62 -123.72,276.34 -276.34,276.34 -152.62,0 -276.34,-123.73 -276.34,-276.34 0,-152.62 123.73,-276.34 276.34,-276.34zm-2153.52 664.9l-188.83 -253.64 -211.86 253.64 -222.61 0 379.21 -413.29 128.7 0 336.47 413.29 -221.07 0zm23.03 -1960.78l-188.83 253.64 -211.87 -253.64 -222.61 0 379.21 413.29 128.7 0 336.47 -413.29 -221.07 0zm1139.67 -4432.04l-253.63 188.83 253.63 211.86 0 222.61 -413.29 -379.2 0 -128.7 413.29 -336.47 0 221.07zm-28.79 1318.37l-253.63 188.83 253.63 211.86 0 222.61 -413.29 -379.2 0 -128.7 413.29 -336.47 0 221.07zm576.73 -2302.4c337.57,0 656.91,93.24 958.04,279.71 278.63,171.46 490.82,406.16 637.63,703.01 129.67,261.49 195.04,539.05 195.04,831.62 0,200.4 -38.58,402.95 -114.67,605.49 -76.08,203.62 -181.11,383.66 -312.92,540.12 -184.32,215.4 -409.37,378.3 -675.13,486.54 -217.54,90.02 -444.73,135.03 -681.57,135.03 -395.44,0 -752.29,-116.81 -1068.43,-351.51 -246.47,-180.04 -434.01,-411.52 -561.54,-693.37 -107.17,-238.98 -160.75,-490.83 -160.75,-756.6 0,-519.76 188.61,-950.57 565.83,-1293.51 353.64,-318.29 759.79,-480.11 1218.46,-486.54zm-93.23 199.33l-6.43 3170c65.37,4.29 110.38,6.43 135.03,6.43 291.48,0 570.11,-81.45 835.88,-245.41 256.12,-159.68 447.94,-370.8 575.47,-635.5 100.73,-208.98 151.1,-440.46 151.1,-691.23 0,-505.83 -186.47,-915.21 -560.47,-1230.28 -302.2,-253.99 -631.19,-380.45 -985.91,-380.45 -28.93,0 -77.16,2.15 -144.67,6.43zm-5037.79 3609.62l1613.89 0 -19.29 1195.98c158.6,-139.32 323.63,-244.34 494.02,-314 170.39,-69.66 347.21,-103.95 531.54,-103.95 409.37,0 779.08,150.03 1107,449.03 369.72,336.5 555.11,774.82 555.11,1314.94 0,556.2 -190.75,1015.94 -571.19,1378.16 -309.7,292.57 -664.42,439.39 -1064.14,439.39 -205.76,0 -389.01,-37.51 -549.76,-111.46 -161.82,-73.95 -326.85,-197.18 -496.17,-370.8l0 411.52 -1601.04 0 0 -141.46 6.43 -1523.91 -2.15 -1086.68 -4.29 -1536.77zm1594.61 1453.18l0 2134.76c140.38,148.96 250.76,256.13 332.21,323.65 167.18,136.1 318.28,203.62 454.38,203.62 94.3,0 154.32,-45.01 182.18,-135.03 11.79,-41.79 19.29,-146.82 21.44,-316.14l0 -2105.83 3.21 -138.24c0,-158.61 -13.93,-266.84 -42.86,-324.72 -27.86,-56.8 -81.44,-85.73 -160.75,-85.73 -100.73,0 -216.47,36.43 -348.28,110.38 -130.74,72.88 -278.63,184.33 -441.51,333.29zm4768.81 -675.15c337.57,0 656.91,93.23 958.04,279.71 278.63,171.46 490.81,406.16 637.63,703.01 129.67,261.49 195.04,539.05 195.04,831.62 0,200.4 -38.58,402.95 -114.66,605.49 -76.09,203.62 -181.11,383.66 -312.92,540.12 -184.32,215.4 -409.37,378.3 -675.13,486.54 -217.54,90.02 -444.73,135.03 -681.56,135.03 -395.44,0 -752.3,-116.81 -1068.43,-351.51 -246.47,-180.04 -434.01,-411.52 -561.54,-693.37 -107.17,-238.98 -160.75,-490.82 -160.75,-756.6 0,-519.76 188.61,-950.57 565.83,-1293.51 353.64,-318.29 759.8,-480.11 1218.46,-486.54zm-93.24 199.33l-6.43 3170c65.37,4.29 110.38,6.43 135.03,6.43 291.48,0 570.11,-81.45 835.88,-245.41 256.12,-159.68 447.94,-370.8 575.47,-635.5 100.74,-208.98 151.1,-440.46 151.1,-691.23 0,-505.83 -186.47,-915.21 -560.47,-1230.28 -302.21,-253.99 -631.2,-380.45 -985.91,-380.45 -28.94,0 -77.16,2.15 -144.68,6.43z"/>
  </g>
 </g>
</svg>
